# File created by Blade
# Date/Time:  Tue Sep 30 19:31:19 2014
#---------------------------------------------------------
:version 1.10
:name HOM
:units
  mass 1.0
  length 1.000000
  angle deg
:documentation
     Acclaim Skeleton File
:root
   axis xyz
   order TX TY TZ RX RY RZ
   position 0.000000 0.000000 0.000000
   orientation 0 0 0
:bonedata
   begin
      id 1
      name Spine_dum
      direction 0.000000 1.000000 0.000000
      length 3.241213
      axis 0.0 0.0 0.0 xyz
   end
   begin
      id 2
      name LeftUpLeg_dum
      direction 1.000000 0.000000 0.000000
      length 3.434019
      axis 0.0 0.0 0.0 xyz
   end
   begin
      id 3
      name RightUpLeg_dum
      direction -1.000000 0.000000 0.000000
      length 3.434019
      axis 0.0 0.0 0.0 xyz
   end
   begin
      id 4
      name Spine
      direction 0.000000 1.000000 0.000000
      length 0.000000
      axis 0.0 0.0 0.0 xyz
      dof rx ry rz
   end
   begin
      id 5
      name Spine_dum1
      direction 0.000000 1.000000 0.000000
      length 18.382958
      axis 0.0 0.0 0.0 xyz
   end
   begin
      id 6
      name Spine_dum2
      direction 0.000000 1.000000 0.000000
      length 12.828261
      axis 0.0 0.0 0.0 xyz
   end
   begin
      id 7
      name Spine_dum3
      direction 0.000000 1.000000 0.000000
      length 12.828261
      axis 0.0 0.0 0.0 xyz
   end
   begin
      id 8
      name Head
      direction 0.000000 1.000000 0.000000
      length 4.527550
      axis 0.0 0.0 0.0 xyz
      dof rx ry rz
   end
   begin
      id 9
      name LeftShoulder
      direction 1.000000 0.000000 0.000000
      length 7.748055
      axis 0.0 0.0 -90.0 xyz
      dof rx ry rz
   end
   begin
      id 10
      name LeftArm
      direction 1.000000 0.000000 0.000000
      length 10.635614
      axis 0.0 0.0 -90.0 xyz
      dof rx ry rz
   end
   begin
      id 11
      name LeftForeArm
      direction 1.000000 0.000000 0.000000
      length 8.346755
      axis 0.0 0.0 -90.0 xyz
      dof ry rz rx
   end
   begin
      id 12
      name LeftHand
      direction 0.000000 0.000000 0.000000
      length 0.000000
      axis 0.0 0.0 -90.0 xyz
      dof rx ry rz
   end
   begin
      id 13
      name LeftHand_dum1
      direction 0.000000 0.000000 0.000000
      length 0.000000
      axis 0.0 0.0 -90.0 xyz
   end
   begin
      id 14
      name LeftHand_dum2
      direction 1.000000 0.000000 0.000000
      length 3.937000
      axis 0.0 0.0 -90.0 xyz
   end
   begin
      id 15
      name LeftHandThumb1
      direction 0.000000 0.000000 1.000000
      length 3.937000
      axis 0.0 0.0 -90.0 xyz
      dof rx rz ry
   end
   begin
      id 16
      name RightShoulder
      direction -1.000000 0.000000 0.000000
      length 7.748055
      axis 0.0 0.0 90.0 xyz
      dof rx ry rz
   end
   begin
      id 17
      name RightArm
      direction -1.000000 0.000000 0.000000
      length 10.635614
      axis 0.0 0.0 90.0 xyz
      dof rx ry rz
   end
   begin
      id 18
      name RightForeArm
      direction -1.000000 0.000000 0.000000
      length 8.346755
      axis 0.0 0.0 90.0 xyz
      dof ry rz rx
   end
   begin
      id 19
      name RightHand
      direction 0.000000 0.000000 0.000000
      length 0.000000
      axis 0.0 0.0 90.0 xyz
      dof rx ry rz
   end
   begin
      id 20
      name RightHand_dum1
      direction 0.000000 0.000000 0.000000
      length 0.000000
      axis 0.0 0.0 90.0 xyz
   end
   begin
      id 21
      name RightHand_dum2
      direction -1.000000 0.000000 0.000000
      length 3.937000
      axis 0.0 0.0 90.0 xyz
   end
   begin
      id 22
      name RightHandThumb1
      direction 0.000000 0.000000 1.000000
      length 3.937000
      axis 0.0 0.0 90.0 xyz
      dof rx rz ry
   end
   begin
      id 23
      name LeftUpLeg
      direction 0.000000 -1.000000 0.000000
      length 15.713025
      axis 0.0 0.0 0.0 xyz
      dof rx ry rz
   end
   begin
      id 24
      name LeftLeg
      direction 0.000000 -1.000000 0.000000
      length 14.435119
      axis 0.0 0.0 0.0 xyz
      dof rx ry rz
   end
   begin
      id 25
      name LeftFoot
      direction 0.000000 -0.258819 0.965926
      length 4.938895
      axis 15.0 0.0 0.0 xyz
      dof rx ry rz
   end
   begin
      id 26
      name LeftToeBase
      direction 0.000000 0.000000 1.000000
      length 2.952750
      axis 0.0 0.0 0.0 xyz
      dof rx ry rz
   end
   begin
      id 27
      name RightUpLeg
      direction 0.000000 -1.000000 0.000000
      length 15.713025
      axis 0.0 0.0 0.0 xyz
      dof rx ry rz
   end
   begin
      id 28
      name RightLeg
      direction 0.000000 -1.000000 0.000000
      length 14.435119
      axis 0.0 0.0 0.0 xyz
      dof rx ry rz
   end
   begin
      id 29
      name RightFoot
      direction 0.000000 -0.258819 0.965926
      length 4.938895
      axis 15.0 0.0 0.0 xyz
      dof rx ry rz
   end
   begin
      id 30
      name RightToeBase
      direction 0.000000 0.000000 1.000000
      length 2.952750
      axis 0.0 0.0 0.0 xyz
      dof rx ry rz
   end
:hierarchy
   begin
      root Spine_dum LeftUpLeg_dum RightUpLeg_dum
      Spine_dum Spine
      LeftUpLeg_dum LeftUpLeg
      RightUpLeg_dum RightUpLeg
      Spine Spine_dum1 Spine_dum2 Spine_dum3
      Spine_dum1 Head
      Spine_dum2 LeftShoulder
      Spine_dum3 RightShoulder
      LeftShoulder LeftArm
      LeftArm LeftForeArm
      LeftForeArm LeftHand
      LeftHand LeftHand_dum1 LeftHand_dum2
      LeftHand_dum1 LeftHandThumb1
      RightShoulder RightArm
      RightArm RightForeArm
      RightForeArm RightHand
      RightHand RightHand_dum1 RightHand_dum2
      RightHand_dum1 RightHandThumb1
      LeftUpLeg LeftLeg
      LeftLeg LeftFoot
      LeftFoot LeftToeBase
      RightUpLeg RightLeg
      RightLeg RightFoot
      RightFoot RightToeBase
   end

# File created by Blade
# Date/Time:  Thu Sep 25 17:54:10 2014
# Frame Rate: 120.000 fps
#------------------------------------------------------
:FULLY-SPECIFIED
:DEGREES
85
root -0.239994 32.385464 -5.829637 34.192971 4.331304 0.555554
Spine -41.181297 -3.001070 1.588624
Head 13.749637 -4.801494 -9.410697
LeftShoulder -14.849031 36.663160 29.642340
LeftArm 43.532262 -49.762307 -42.330538
LeftForeArm 16.037605 -0.000000 0.750937
LeftHand -20.716274 -0.000000 -8.269664
LeftHandThumb1 -26.253704 0.000000 33.147579
RightShoulder -19.138127 -35.037440 -31.232760
RightArm 46.573566 50.568001 49.758402
RightForeArm 6.484970 -0.000000 16.499299
RightHand 8.868827 -0.000000 -6.500956
RightHandThumb1 -24.326973 -0.000000 -32.862282
LeftUpLeg -28.515372 1.470581 1.011328
LeftLeg 0.185432 -0.000000 -0.000000
LeftFoot -6.932171 -1.469918 -1.054371
LeftToeBase 2.686453 -0.000000 -0.000000
RightUpLeg -27.103137 -6.144025 4.952814
RightLeg -1.612024 -0.000000 0.000000
RightFoot -10.856371 -4.725394 10.505371
RightToeBase 15.232839 -0.000000 -0.000000
86
root -0.239949 32.385514 -5.825438 34.181871 4.352868 0.559562
Spine -41.204620 -3.003973 1.623760
Head 13.872959 -4.794378 -9.448036
LeftShoulder -14.872321 36.578246 29.669458
LeftArm 43.771709 -50.066344 -42.243442
LeftForeArm 16.143199 -0.000000 0.931303
LeftHand -20.866077 0.000000 -8.096145
LeftHandThumb1 -26.253704 0.000000 33.147579
RightShoulder -19.091812 -34.785333 -31.488969
RightArm 47.009914 51.447177 50.327438
RightForeArm 6.124643 -0.000000 17.854808
RightHand 9.115264 -0.000000 -7.063124
RightHandThumb1 -24.326973 -0.000000 -32.862282
LeftUpLeg -28.504959 1.473470 1.008729
LeftLeg 0.196050 -0.000000 -0.000000
LeftFoot -6.935067 -1.496451 -1.053852
LeftToeBase 2.669512 -0.000000 -0.000000
RightUpLeg -27.079470 -6.133474 4.943652
RightLeg -1.616735 -0.000000 0.000000
RightFoot -10.856273 -4.759758 10.542682
RightToeBase 15.189744 -0.000000 -0.000000
87
root -0.240928 32.385321 -5.821862 34.172216 4.373851 0.558456
Spine -41.224826 -2.999725 1.661793
Head 13.987735 -4.775672 -9.498076
LeftShoulder -14.882095 36.400695 29.713135
LeftArm 43.788832 -50.245716 -41.925507
LeftForeArm 16.065960 -0.000000 1.164521
LeftHand -20.887397 0.000000 -7.987190
LeftHandThumb1 -26.253704 0.000000 33.147579
RightShoulder -19.069399 -34.560331 -31.746961
RightArm 47.620921 52.382392 51.125201
RightForeArm 5.788618 0.000000 19.315829
RightHand 8.993718 0.000000 -7.276313
RightHandThumb1 -24.326973 -0.000000 -32.862282
LeftUpLeg -28.497610 1.470553 1.017982
LeftLeg 0.208132 -0.000000 -0.000000
LeftFoot -6.946392 -1.512674 -1.043665
LeftToeBase 2.673410 -0.000000 -0.000000
RightUpLeg -27.064771 -6.124882 4.940476
RightLeg -1.605927 -0.000000 0.000000
RightFoot -10.878551 -4.789341 10.509325
RightToeBase 15.228995 -0.000000 -0.000000
88
root -0.241873 32.384878 -5.818015 34.155774 4.397022 0.561809
Spine -41.242543 -3.004167 1.698711
Head 14.111967 -4.746577 -9.552560
LeftShoulder -14.850897 36.224764 29.759076
LeftArm 43.794653 -50.558761 -41.713251
LeftForeArm 16.100334 -0.000000 1.589084
LeftHand -20.992854 -0.000000 -7.790242
LeftHandThumb1 -26.253704 0.000000 33.147579
RightShoulder -19.027217 -34.276666 -32.032985
RightArm 48.296047 53.313041 51.988928
RightForeArm 5.711634 -0.000000 20.759784
RightHand 9.044718 0.000000 -7.526441
RightHandThumb1 -24.326973 -0.000000 -32.862282
LeftUpLeg -28.478286 1.458380 1.025293
LeftLeg 0.210596 -0.000000 -0.000000
LeftFoot -6.952360 -1.518148 -1.063911
LeftToeBase 2.706853 -0.000000 -0.000000
RightUpLeg -27.044968 -6.139472 4.947582
RightLeg -1.595708 -0.000000 0.000000
RightFoot -10.899700 -4.787830 10.529525
RightToeBase 15.221135 -0.000000 -0.000000
89
root -0.243113 32.384045 -5.812995 34.105600 4.421204 0.566729
Spine -41.226796 -2.990423 1.715427
Head 14.252966 -4.733842 -9.618884
LeftShoulder -14.823564 36.064286 29.810597
LeftArm 44.059352 -51.030351 -41.753407
LeftForeArm 16.246361 -0.000000 1.985086
LeftHand -21.052732 -0.000000 -7.663028
LeftHandThumb1 -26.253704 0.000000 33.147579
RightShoulder -19.045122 -34.034920 -32.277354
RightArm 49.113587 54.234940 52.938784
RightForeArm 5.757875 -0.000000 22.234498
RightHand 8.679034 -0.000000 -7.467244
RightHandThumb1 -24.326973 -0.000000 -32.862282
LeftUpLeg -28.425565 1.452878 1.029516
LeftLeg 0.216928 -0.000000 -0.000000
LeftFoot -6.964007 -1.529388 -1.046983
LeftToeBase 2.688539 -0.000000 -0.000000
RightUpLeg -26.985751 -6.164675 4.950482
RightLeg -1.600222 -0.000000 0.000000
RightFoot -10.863371 -4.731374 10.651267
RightToeBase 15.065290 -0.000000 -0.000000
90
root -0.245513 32.383013 -5.807882 34.055099 4.445604 0.571547
Spine -41.213403 -2.982214 1.735336
Head 14.405753 -4.698144 -9.697633
LeftShoulder -14.804468 35.889968 29.855364
LeftArm 44.202027 -51.397947 -41.624941
LeftForeArm 16.186179 -0.000000 2.431457
LeftHand -21.119533 -0.000000 -7.487034
LeftHandThumb1 -26.253704 0.000000 33.147579
RightShoulder -19.036525 -33.731894 -32.556454
RightArm 49.975284 55.074014 53.918345
RightForeArm 5.699730 -0.000000 23.640930
RightHand 8.797057 -0.000000 -8.295626
RightHandThumb1 -24.326973 -0.000000 -32.862282
LeftUpLeg -28.376124 1.449187 1.035898
LeftLeg 0.231362 -0.000000 -0.000000
LeftFoot -6.975501 -1.558743 -1.059263
LeftToeBase 2.696039 -0.000000 -0.000000
RightUpLeg -26.923617 -6.155478 4.943218
RightLeg -1.588596 -0.000000 0.000000
RightFoot -10.934550 -4.833260 10.492385
RightToeBase 15.221153 -0.000000 -0.000000
